<?xml version="1.0" encoding="utf-8"?>
<!-- Generator: Adobe Illustrator 22.1.0, SVG Export Plug-In . SVG Version: 6.00 Build 0)  -->
<svg version="1.1" id="Layer_1" xmlns="http://www.w3.org/2000/svg" xmlns:xlink="http://www.w3.org/1999/xlink" x="0px" y="0px"
	 viewBox="0 0 720 720" style="enable-background:new 0 0 720 720;" xml:space="preserve">
<style type="text/css">
	.st0{fill:url(#SVGID_1_);}
	.st1{fill:#FFFFFF;}
	.st2{fill:none;stroke:#FFFFFF;stroke-width:25;stroke-miterlimit:10;}
</style>
<image style="display:none;overflow:visible;" width="5312" height="2988" xlink:href="Logo.jpg"  transform="matrix(2.873465e-09 0.241 -0.241 2.873465e-09 720.0001 -287)">
</image>
<linearGradient id="SVGID_1_" gradientUnits="userSpaceOnUse" x1="360" y1="0" x2="360" y2="720">
	<stop  offset="0" style="stop-color:#FF4A3F"/>
	<stop  offset="1" style="stop-color:#FF6A15"/>
</linearGradient>
<path class="st0" d="M630.6,720H89.4C40,720,0,680,0,630.6V89.4C0,40,40,0,89.4,0h541.2C680,0,720,40,720,89.4v541.2
	C720,680,680,720,630.6,720z"/>
<g>
	<path class="st1" d="M354.7,122.6c2.5,0,4.3,0.3,4.5,0.3c3.4,0.7,13.5,2.8,28.8,30.7c6.8,12.4,26,70.9,28,149.5
		c1.4,56-6.3,103.8-22.3,138.3c-15.1,32.6-37.2,52.8-65.6,59.9c-10.7,2.7-21.2,4.1-31.2,4.1c-46.8,0-78.6-30-104.3-54.2
		c-1.2-1.1-2.4-2.3-3.6-3.4c-29.6-27.8-61-70.6-83.9-114.7c-11.4-21.9-20.2-43.2-25.3-61.5c-6.3-22.5-5.9-35.6-4.4-42.6
		c3.7-18.1,9.7-21.5,15-23.3c4.5-1.5,8.7-2.3,12.7-2.3c9.8,0,18.5,4.5,29.6,10.1c11.4,5.8,24.2,12.3,40.1,14.3
		c4.3,0.5,9,0.8,13.8,0.8c23.1,0,51.1-6.3,76.9-17.2c37.5-15.9,52.2-33.6,58-45.7c3.6-7.4,6.2-13.9,8.5-19.6
		c5-12.3,7-16.6,11.2-19.8C345.3,123.2,350.8,122.6,354.7,122.6 M354.7,97.6c-7.7,0-19,1.5-28.6,8.9C311.9,117.3,310,132,299,155
		c-11.6,24.3-71.4,48.6-112.3,48.6c-3.7,0-7.3-0.2-10.7-0.6c-25.5-3.2-44.1-24.6-72.8-24.6c-6.3,0-13.2,1-20.7,3.6
		c-20.6,6.9-28,24.6-31.5,42c-12,59,57.1,182.1,121,242c27.6,25.9,65.8,64.3,124.9,64.3c11.6,0,24-1.5,37.3-4.8
		C408,507,444,422,441,302.5c-2.1-81.1-21.6-143.6-31.1-160.9c-15.6-28.5-30.2-40.1-46-43.3C363.3,98.2,359.7,97.6,354.7,97.6
		L354.7,97.6z"/>
</g>
<path class="st2" d="M405.8,147c1.4-3,35.8-46.1,83.8-51.4c28.5-3.1,64.7,8.1,75.7,32.4c6.7,14.7-1.2,22.4-8.1,74.3
	c-4.6,35-6.8,52.7,0,63.5c14.6,23.2,44.5,11.3,68.9,32.4c27.6,23.9,29.5,73.9,18.9,102.7C624.7,457,506.6,484.7,400.4,462"/>
<path class="st1" d="M222,341.7c-17.6,5.7-28.8,9.3-35.1,4.1c-10.7-8.9-6.2-42.4,12.2-51.4c21.9-10.7,55.2,17.7,52.7,31.1
	C250.4,332.5,239.2,336.1,222,341.7z"/>
<path class="st1" d="M357.2,303.8c-17.6,5.7-28.8,9.3-35.1,4.1c-10.7-8.9-6.2-42.4,12.2-51.4c21.9-10.7,55.2,17.7,52.7,31.1
	C385.6,294.6,374.4,298.3,357.2,303.8z"/>
<path class="st1" d="M441,182.7c-4-15.1-6.6-24.6-1.9-29.7c7.9-8.6,35.9-3.5,42.6,12.4c8.1,18.9-17.1,45.6-28.3,43
	C447.5,207,444.9,197.4,441,182.7z"/>
<path class="st1" d="M257.1,413.3c-1.9,17.8,23.7,40.4,48.7,40.6c41,0.3,64.5-60,52.7-75.7C344.1,359,260.4,383.1,257.1,413.3z"/>
<path class="st1" d="M455.6,255.9c-1.7-15.5-2.8-25.3,2.6-29.6c9.1-7.3,36,2,40.3,18.7c5.1,19.9-23.8,42.5-34.5,38.2
	C458.4,280.9,457.3,271,455.6,255.9z"/>
<path class="st1" d="M455.8,328.5c1.1-15.5,1.8-25.4,7.9-28.7c10.3-5.5,35,8.5,36.2,25.7c1.4,20.5-31.2,37.4-40.9,31.3
	C454,353.5,454.7,343.7,455.8,328.5z"/>
<path class="st1" d="M438.5,410.4c3.7-15.1,6-24.8,12.6-27c11.1-3.7,33.1,14.2,31.4,31.3c-2,20.4-36.9,31.7-45.5,24.1
	C432.5,434.9,434.9,425.2,438.5,410.4z"/>
<path class="st1" d="M540.8,358.9c11.8-25.4,19.4-41.5,31.7-43.1c20.8-2.7,53.3,36.7,44.3,66.3c-10.7,35.3-76.3,42.9-88.6,26.4
	C521.7,399.8,529.3,383.7,540.8,358.9z"/>
<g id="_x31_Khqsv_1_">
	<g>
		<path class="st1" d="M382.8,596c-5.2,15.7-16.3,22.9-29.9,26.8c-5.4,1.5-10.8,3.2-16.3,3.8c-39.5,4.2-79,8.3-118.5,12.3
			c-3.2,0.3-6.5,0.2-9.7,0.4c-5.8,0.3-11.6,0.1-13.8-6.7c-2.2-6.8,2.2-10.3,7.3-13.3c14-8,27.8-16.6,42.1-24.1
			c22.9-12.1,46.1-23.6,69.3-35.1c6-3,12.5-5.3,18.9-7.3c14.2-4.4,27.9-4.1,40.8,6.9c-0.5-3.1-0.6-5-1.2-6.8
			c-2.5-7.3,0.5-10.8,7.6-12.8c19.9-5.6,19.8-5.8,25.3,14.4c3.2,11.6,6.5,23.3,9.7,34.9c3.2,11.4,2.4,12.7-9.3,16
			c-0.9,0.2-1.7,0.5-2.6,0.7C389,609.8,389,609.8,382.8,596z"/>
		<path class="st1" d="M578.8,581c0.3,1.6-1,3.1-2.6,2.9c-0.1,0-0.2,0-0.2-0.1c-20.8-23.2-31.5-25.3-58.8-9.9
			c-8.4,4.7-16.2,10.6-23.8,16.5c-16,12.5-33.6,15.8-52.1,7.8c-18.9-8.2-29.3-23.4-30-44.1c-0.6-20.7,8.9-36.4,27.2-45.9
			c50.1-25.9,111.7-3.9,134.1,48C576,563.6,577,572.2,578.8,581z M509.4,566.8c18.3-6.4,30.6-16.4,48.7-9.7c2,0.7,3.9-1.2,3-3.2
			c-11.6-26.7-53.3-51.2-78.3-46.1c-2,0.4-2.6,2.9-1.1,4.2c2.3,2,4.7,3.9,7.3,6.1c1.2,1,1.2,2.8-0.1,3.8
			c-8.9,6.8-20.4,9.5-29.8,15.7c-5.2,3.4-2.9,11.6,3.4,11.6c0,0,0.1,0,0.1,0c10.6,0,21.2-0.5,31.7-0.2c5.2,0.1,10,1.4,5.5,8.5
			c-2.3,3.6-5.5,6.5-1,9.5C502,569,506,568,509.4,566.8z"/>
	</g>
</g>
</svg>
